<svg width="65" height="20" viewBox="0 0 65 20" fill="none" xmlns="http://www.w3.org/2000/svg">
<rect width="65" height="20" fill="#F6623E"/>
<path d="M9.4 9.5C9.4 8.98667 9.48667 8.51333 9.66 8.08C9.84 7.64 10.09 7.26 10.41 6.94C10.73 6.61333 11.1067 6.36 11.54 6.18C11.9733 5.99333 12.4433 5.9 12.95 5.9C13.4633 5.9 13.9333 5.99333 14.36 6.18C14.7933 6.36 15.17 6.61333 15.49 6.94C15.81 7.26 16.0567 7.64 16.23 8.08C16.41 8.51333 16.5 8.98667 16.5 9.5C16.5 10.0067 16.41 10.48 16.23 10.92C16.0567 11.36 15.81 11.7433 15.49 12.07C15.17 12.39 14.7933 12.6433 14.36 12.83C13.9333 13.01 13.4633 13.1 12.95 13.1C12.4433 13.1 11.9733 13.01 11.54 12.83C11.1067 12.6433 10.73 12.39 10.41 12.07C10.09 11.7433 9.84 11.36 9.66 10.92C9.48667 10.48 9.4 10.0067 9.4 9.5ZM10.3 9.5C10.3 10.0267 10.4133 10.4967 10.64 10.91C10.8733 11.3233 11.19 11.65 11.59 11.89C11.99 12.13 12.4433 12.25 12.95 12.25C13.4633 12.25 13.9167 12.13 14.31 11.89C14.71 11.65 15.0233 11.3233 15.25 10.91C15.4833 10.4967 15.6 10.0267 15.6 9.5C15.6 8.97333 15.4833 8.50333 15.25 8.09C15.0233 7.67667 14.71 7.35 14.31 7.11C13.9167 6.87 13.4633 6.75 12.95 6.75C12.4433 6.75 11.99 6.87 11.59 7.11C11.19 7.35 10.8733 7.67667 10.64 8.09C10.4133 8.50333 10.3 8.97333 10.3 9.5ZM24.0004 6H24.8504V13.35L19.5504 7.79V13H18.7004V5.65L24.0004 11.21V6ZM31.7123 10.88C31.9457 11.3067 32.2057 11.65 32.4923 11.91C32.7857 12.17 33.1423 12.3 33.5623 12.3C33.9357 12.3 34.2357 12.1967 34.4623 11.99C34.689 11.7833 34.8023 11.52 34.8023 11.2C34.8023 10.8867 34.729 10.6367 34.5823 10.45C34.4357 10.2633 34.2423 10.1133 34.0023 10C33.769 9.88 33.519 9.77333 33.2523 9.68C33.079 9.62 32.8857 9.54333 32.6723 9.45C32.459 9.35 32.2557 9.22667 32.0623 9.08C31.869 8.92667 31.709 8.74 31.5823 8.52C31.4623 8.3 31.4023 8.03 31.4023 7.71C31.4023 7.36333 31.489 7.05333 31.6623 6.78C31.8357 6.50667 32.0757 6.29333 32.3823 6.14C32.689 5.98 33.039 5.9 33.4323 5.9C33.8123 5.9 34.1423 5.97333 34.4223 6.12C34.709 6.26 34.9523 6.44333 35.1523 6.67C35.3523 6.89 35.509 7.12333 35.6223 7.37L34.8923 7.79C34.8057 7.61667 34.6957 7.44667 34.5623 7.28C34.429 7.11333 34.2657 6.97667 34.0723 6.87C33.8857 6.76333 33.6557 6.71 33.3823 6.71C33.0023 6.71 32.7257 6.80333 32.5523 6.99C32.379 7.17 32.2923 7.37333 32.2923 7.6C32.2923 7.89333 32.409 8.15 32.6423 8.37C32.8757 8.59 33.299 8.80667 33.9123 9.02C34.099 9.08667 34.2957 9.17333 34.5023 9.28C34.709 9.38667 34.899 9.52333 35.0723 9.69C35.2523 9.85 35.399 10.0467 35.5123 10.28C35.6257 10.5067 35.6823 10.78 35.6823 11.1C35.6823 11.5067 35.579 11.86 35.3723 12.16C35.1723 12.46 34.909 12.6933 34.5823 12.86C34.2557 13.02 33.9057 13.1 33.5323 13.1C33.1523 13.1 32.799 13.02 32.4723 12.86C32.1523 12.6933 31.869 12.4767 31.6223 12.21C31.3823 11.9367 31.1857 11.6467 31.0323 11.34L31.7123 10.88ZM42.7309 13L41.8409 10.9H39.0209L38.1309 13H37.1809L40.4309 5.65L43.6809 13H42.7309ZM40.4309 7.58L39.3609 10.1H41.5009L40.4309 7.58ZM45.5324 6H46.3824V12.2H49.1324V13H45.5324V6ZM51.0344 6H55.0344V6.8H51.8844V8.8H54.8344V9.6H51.8844V12.2H55.0344V13H51.0344V6Z" fill="white"/>
</svg>
